<svg xmlns="http://www.w3.org/2000/svg" version="1.1" xmlns:xlink="http://www.w3.org/1999/xlink" width="595.28" height="841.89"><svg id="SvgjsSvg1001" xmlns="http://www.w3.org/2000/svg" version="1.1" viewBox="0 0 595.28 841.89">
  <!-- Generator: Adobe Illustrator 30.0.0, SVG Export Plug-In . SVG Version: 2.1.1 Build 123)  -->
  <defs>
    <style>
      .st0, .st1, .st2 {
        fill: #fff;
      }

      .st3 {
        fill: #010101;
        stroke: #cb9a27;
        stroke-width: 15px;
      }

      .st3, .st1, .st2 {
        stroke-miterlimit: 10;
      }

      .st1 {
        opacity: .36;
      }

      .st1, .st2 {
        stroke: #fff;
        stroke-width: .25px;
      }

      .st2 {
        opacity: .52;
      }

      .st4 {
        fill: #cb9a27;
      }
    </style>
  </defs>
  <g>
    <ellipse class="st3" cx="301.15" cy="422.16" rx="208.98" ry="212.78"></ellipse>
    <g>
      <path class="st4" d="M157.55,317.35h24.35l17.63,168.53h-22.67l-1.26-30.01h-12.59l-2.1,30.01h-22.46l19.1-168.53ZM172.45,400.04c-.84-18.26-1.47-36.31-2.31-54.78h-1.89c-.63,16.58-.63,29.59-1.47,44.91l-2.52,43.87h9.86l-1.68-34Z"></path>
      <path class="st4" d="M215.68,356.17c7.77,2.73,10.7,6.93,11.96,18.26,3.36-4.41,13.85-18.26,17-18.26h1.47v23.93c-9.24,1.68-18.47,13.64-18.47,21.41v84.37h-19.1v-105.57c0-4.83-1.05-7.35-4.41-10.07l11.54-14.06Z"></path>
      <path class="st4" d="M331.53,485.88h-19.1v-103.89c0-4.41-1.68-6.72-4.62-6.72-2.31,0-3.99,2.31-5.25,3.99v106.62h-19.1v-104.31c0-2.94-1.05-6.3-4.62-6.3-2.31,0-3.78,1.89-5.25,3.99v106.62h-19.1v-108.51c0-2.94-1.26-6.3-3.15-7.77l11.12-13.64c4.62,1.47,8.81,5.25,10.28,9.65,3.15-4.83,7.35-9.86,14.9-9.86,5.88,0,10.49,3.78,13.43,9.44,4.41-5.46,8.4-9.44,15.32-9.44,8.4,0,15.11,7.56,15.11,23.72v106.41Z"></path>
      <path class="st4" d="M362.37,356.17c6.3,0,9.66,3.36,11.33,5.04,8.4,8.18,13.01,33.16,13.01,60.45,0,36.94-7.77,65.48-23.3,65.48-4.83,0-8.6-1.89-11.96-5.25-8.4-8.6-13.01-35.26-13.01-60.24,0-36.52,7.77-65.48,23.93-65.48ZM362.79,464.89c3.99-4.41,4.62-18.89,4.62-42.81s-.63-41.14-4.62-43.66c-3.99,2.73-4.62,17.63-4.62,41.35s.21,41.14,4.62,45.12Z"></path>
      <path class="st4" d="M443.38,485.88h-19.31v-105.36c0-3.57-2.73-5.46-4.83-5.46-1.89,0-3.57,1.26-4.83,3.15v107.67h-19.1v-105.78c0-5.04-1.47-8.4-3.99-10.08l12.17-14.06c5.25,1.26,8.19,6.3,9.66,9.02,2.73-3.57,7.35-9.02,14.69-9.02,8.18,0,15.53,6.3,15.53,22.67v107.25Z"></path>
      <path class="st4" d="M452.19,357.22h19.1v128.66h-19.1v-128.66Z"></path>
    </g>
    <g>
      <path class="st0" d="M153.83,317.22h24.35l17.63,168.53h-22.67l-1.26-30.01h-12.59l-2.1,30.01h-22.46l19.1-168.53ZM168.73,399.91c-.84-18.26-1.47-36.31-2.31-54.78h-1.89c-.63,16.58-.63,29.59-1.47,44.91l-2.52,43.87h9.86l-1.68-34Z"></path>
      <path class="st0" d="M211.96,356.04c7.77,2.73,10.7,6.93,11.96,18.26,3.36-4.41,13.85-18.26,17-18.26h1.47v23.93c-9.24,1.68-18.47,13.64-18.47,21.41v84.37h-19.1v-105.57c0-4.83-1.05-7.35-4.41-10.07l11.54-14.06Z"></path>
      <path class="st0" d="M327.8,485.75h-19.1v-103.89c0-4.41-1.68-6.72-4.62-6.72-2.31,0-3.99,2.31-5.25,3.99v106.62h-19.1v-104.31c0-2.94-1.05-6.3-4.62-6.3-2.31,0-3.78,1.89-5.25,3.99v106.62h-19.1v-108.51c0-2.94-1.26-6.3-3.15-7.77l11.12-13.64c4.62,1.47,8.81,5.25,10.28,9.65,3.15-4.83,7.35-9.86,14.9-9.86,5.88,0,10.49,3.78,13.43,9.44,4.41-5.46,8.4-9.44,15.32-9.44,8.4,0,15.11,7.56,15.11,23.72v106.41Z"></path>
      <path class="st0" d="M358.65,356.04c6.3,0,9.66,3.36,11.33,5.04,8.4,8.18,13.01,33.16,13.01,60.45,0,36.94-7.77,65.48-23.3,65.48-4.83,0-8.6-1.89-11.96-5.25-8.4-8.6-13.01-35.26-13.01-60.24,0-36.52,7.77-65.48,23.93-65.48ZM359.07,464.76c3.99-4.41,4.62-18.89,4.62-42.81s-.63-41.14-4.62-43.66c-3.99,2.73-4.62,17.63-4.62,41.35s.21,41.14,4.62,45.12Z"></path>
      <path class="st0" d="M439.66,485.75h-19.31v-105.36c0-3.57-2.73-5.46-4.83-5.46-1.89,0-3.57,1.26-4.83,3.15v107.67h-19.1v-105.78c0-5.04-1.47-8.4-3.99-10.08l12.17-14.06c5.25,1.26,8.19,6.3,9.66,9.02,2.73-3.57,7.35-9.02,14.69-9.02,8.18,0,15.53,6.3,15.53,22.67v107.25Z"></path>
      <path class="st0" d="M448.47,357.09h19.1v128.66h-19.1v-128.66Z"></path>
    </g>
    <g>
      <path class="st0" d="M234.75,502.44c-.25-1.9-1.76-4.07-4.57-4.07-2.66,0-4.35,2.02-4.35,4.66,0,2.98,1.82,4.01,5.1,5.81,2.22,1.24,5.16,2.86,5.16,6.37,0,2.71-2.04,5.78-6.61,5.78-2.07,0-3.52-.59-4.57-1.12-.09-.03-.37-.16-.62-.16-.49,0-.53.56-.68,1.21h-.25v-5.6h.25c.74,3.39,3.03,4.98,5.93,4.98,3.68,0,4.51-2.46,4.51-4.01,0-2.71-1.95-4.07-4.6-5.5-2.78-1.49-5.65-3.02-5.65-6.87,0-3.17,2.59-6.22,6.64-6.22,1.08,0,2.01.19,3,.5.06.03.4.12.65.12.06,0,.49,0,.68-.68h.25v4.79h-.25Z"></path>
      <path class="st0" d="M250.35,521.09c-6.67,0-11.8-5.38-11.8-11.85s5.47-11.75,11.77-11.75,11.7,4.69,11.7,11.85c0,6.34-5.06,11.75-11.67,11.75ZM250.32,498.18c-3.12,0-9.11,1.8-9.11,11.13,0,8.18,4.73,11.1,9.14,11.1,3.83,0,9.02-2.36,9.02-11.01,0-9.86-6.39-11.22-9.05-11.22Z"></path>
      <path class="st0" d="M265.11,520.25c.99,0,2.07-.75,2.07-2.46v-16.88c0-2.08-1.39-2.49-2.38-2.52v-.25h7.1v.25c-.83.03-2.38.34-2.38,2.52v16.32c0,2.02.99,2.58,3.09,2.58h1.91c2.63,0,3.24-.9,4.08-2.99h.25l-.83,3.67h-13.22v-.25h.31Z"></path>
      <path class="st0" d="M296.7,520.5v-3.7l-.06-.06c-1.39,3.3-4.48,4.35-6.92,4.35-3.27,0-5.93-1.83-7.04-3.95-.96-1.8-.96-4.04-.96-5.13v-11.13c0-.84,0-2.3-2.32-2.49v-.25h6.98v.25c-2.38.28-2.38,1.83-2.38,2.49v10.94c0,2.05.15,3.7.68,4.94.96,2.27,3,3.61,5.47,3.61.71,0,2.35-.19,3.8-1.18,1.45-.99,2.75-2.83,2.75-6.09v-12.22c0-.72,0-2.27-2.41-2.49v-.25h7.1v.25c-2.38.12-2.41,1.96-2.41,2.46v16.95c0,1.9,1.05,2.24,2.38,2.46v.25h-4.66Z"></path>
      <path class="st0" d="M322.27,502.5c-.25-3.3-2.47-3.48-3.98-3.48h-4.42v18.78c0,2.15,1.51,2.43,2.41,2.46v.25h-7.07v-.25c1.08-.03,2.38-.5,2.38-2.46v-18.78h-4.42c-1.51,0-3.74.19-3.98,3.48h-.25v-5.47h.25c.49.87,1.02,1.12,2.47,1.12h14.39c1.17,0,1.76-.47,2.22-1.12h.25v5.47h-.25Z"></path>
      <path class="st0" d="M331.22,498.4c-1.14,0-2.38.53-2.38,2.43v16.98c0,1.93,1.39,2.46,2.38,2.46v.25h-7.04v-.25c1.08,0,2.38-.53,2.38-2.46v-16.98c0-2.08-1.42-2.43-2.38-2.43v-.25h7.04v.25Z"></path>
      <path class="st0" d="M345.77,521.09c-6.67,0-11.8-5.38-11.8-11.85s5.47-11.75,11.77-11.75,11.7,4.69,11.7,11.85c0,6.34-5.06,11.75-11.67,11.75ZM345.74,498.18c-3.12,0-9.11,1.8-9.11,11.13,0,8.18,4.73,11.1,9.14,11.1,3.83,0,9.02-2.36,9.02-11.01,0-9.86-6.39-11.22-9.05-11.22Z"></path>
      <path class="st0" d="M383.2,498.4c-1.48.19-2.38.44-2.38,3.05v19.62h-.15l-17.05-19.15v13.74c0,2.55.22,3.33.53,3.76.4.56,1.17.81,1.95.84v.25h-5.56v-.25c1.82-.09,2.41-.75,2.41-4.57v-14.58l-.74-.84c-1.48-1.68-2.16-1.71-3.03-1.87v-.25h4.17l16.8,18.94v-14.43c0-2.64-.06-4.17-2.53-4.26v-.25h5.59v.25Z"></path>
      <path class="st0" d="M396.47,502.44c-.25-1.9-1.76-4.07-4.57-4.07-2.66,0-4.35,2.02-4.35,4.66,0,2.98,1.82,4.01,5.1,5.81,2.22,1.24,5.16,2.86,5.16,6.37,0,2.71-2.04,5.78-6.61,5.78-2.07,0-3.52-.59-4.57-1.12-.09-.03-.37-.16-.62-.16-.49,0-.53.56-.68,1.21h-.25v-5.6h.25c.74,3.39,3.03,4.98,5.93,4.98,3.68,0,4.51-2.46,4.51-4.01,0-2.71-1.95-4.07-4.6-5.5-2.78-1.49-5.65-3.02-5.65-6.87,0-3.17,2.59-6.22,6.64-6.22,1.08,0,2.01.19,3,.5.06.03.4.12.65.12.06,0,.49,0,.68-.68h.25v4.79h-.25Z"></path>
    </g>
  </g>
  <path class="st1" d="M200.41,608.62c-1.32-1.32,142.93,72.47,246.11-36.23,33.08-34.85,79.31-104.88,57.23-191.08,0,0,38.74,88.4-51.71,191.93-89.98,102.99-234.22,52.8-251.63,35.39Z"></path>
  <path class="st2" d="M402.07,236.3c1.16,1.45-132.17-74.46-246.79,38.37-34.14,33.61-76.35,104.88-54.4,191.08.46.93-44.03-91.9,49.41-191.93,94.43-101.09,231.44-62.95,251.78-37.52Z"></path>
</svg><style>@media (prefers-color-scheme: light) { :root { filter: none; } }
@media (prefers-color-scheme: dark) { :root { filter: none; } }
</style></svg>